<?xml version="1.0" encoding="UTF-8"?>
<!DOCTYPE svg PUBLIC "-//W3C//DTD SVG 1.1//EN" "http://www.w3.org/Graphics/SVG/1.1/DTD/svg11.dtd">
<!-- Creator: CorelDRAW (Versión de evaluación) -->
<svg xmlns="http://www.w3.org/2000/svg" xml:space="preserve" width="150mm" height="150mm" version="1.1" style="shape-rendering:geometricPrecision; text-rendering:geometricPrecision; image-rendering:optimizeQuality; fill-rule:evenodd; clip-rule:evenodd"
viewBox="0 0 15000 15000"
 xmlns:xlink="http://www.w3.org/1999/xlink"
 xmlns:xodm="http://www.corel.com/coreldraw/odm/2003">
 <defs>
  <style type="text/css">
   <![CDATA[
    .fil0 {fill:black}
   ]]>
  </style>
 </defs>
 <g id="Capa_x0020_1">
  <metadata id="CorelCorpID_0Corel-Layer"/>
  <path id="isotipo_main.svg" class="fil0" d="M8586.96 2608.99l1969.2 3410.72c-809.76,-730.07 -1881.72,-1174.02 -3057.76,-1174.02 -1176.04,0 -2248,443.95 -3057.76,1174.02l1969.2 -3410.72c230.79,-399.73 627,-628.5 1088.56,-628.5 461.56,0 857.77,228.77 1088.56,628.5zm-1088.56 3075.86c943.43,0 1708.75,765.32 1708.75,1708.75 0,943.43 -765.32,1708.76 -1708.75,1708.76 -943.43,0 -1708.76,-765.33 -1708.76,-1708.76 0,-943.43 765.33,-1708.75 1708.76,-1708.75zm3969.59 1914.14l1895.04 3282.53c273.52,473.62 218.21,1042.79 -141.54,1455.09 -359.76,412.04 -916.35,543.77 -1422.66,336.88l-3824.8 -1563.21c-316.74,-129.46 -634.52,-129.46 -951.26,0l-3824.79 1563.21c-506.32,206.89 -1062.91,75.16 -1422.67,-336.88 -359.75,-412.3 -415.06,-981.47 -141.54,-1455.09l1895.04 -3282.53c787.13,1377.17 2269.38,2305.84 3969.59,2305.84 1700.21,0 3182.45,-928.67 3969.59,-2305.84z"/>
 </g>
</svg>
